<svg width="213" height="273" viewBox="0 0 213 273" fill="none" xmlns="http://www.w3.org/2000/svg">
    <path
        d="M12.9193 248.26C13.4017 247.699 19.6716 228.2 22.7209 219.387C22.7209 219.387 21.2612 209.826 14.5266 202.532C13.8273 202.42 8.22623 201.76 6.51712 202.693C4.39213 203.853 2.88844 221.339 2.55083 230.47C2.34988 235.905 2.7774 244.043 4.50475 246.561C6.17478 248.995 12.3164 248.962 12.9193 248.26Z"
        fill="#412F16" />
    <mask id="mask0_138_2911" style="mask-type:alpha" maskUnits="userSpaceOnUse" x="2" y="202" width="21" height="47">
        <path
            d="M12.9193 248.261C13.4017 247.7 19.6716 228.201 22.7209 219.388C22.7209 219.388 21.2612 209.827 14.5266 202.533C13.8273 202.421 8.22623 201.761 6.51712 202.694C4.39213 203.854 2.88844 221.34 2.55083 230.471C2.34988 235.906 2.7774 244.044 4.50475 246.562C6.17478 248.996 12.3164 248.963 12.9193 248.261Z"
            fill="#412F16" />
    </mask>
    <g mask="url(#mask0_138_2911)">
        <path
            d="M16.7124 243.661C14.005 249.39 6.20952 246.489 5.53548 240.671C5.19059 237.693 5.25271 232.27 7.80765 219.286C8.2295 203.413 11.3875 198.286 14.9365 201.35L25.3822 228.497L26.8586 244.289C23.4512 245.216 17.607 241.768 16.7124 243.661Z"
            fill="#785828" />
    </g>
    <path
        d="M17.2633 239.431C18.045 235.007 18.8675 223.914 27.9504 225.085L33.8706 216.927L29.7776 205.053C29.7776 205.053 27.3464 205.223 23.5547 205.356C18.5929 203.969 12.6231 200.87 10.8253 205.481C7.94747 212.863 10.3334 217.822 7.06444 231.35C5.61829 237.334 7.69254 242.699 8.95219 244.575C10.2118 246.45 13.2722 247.346 14.5999 246.256C15.706 245.348 16.6071 243.145 17.2633 239.431Z"
        fill="#D9D9D9" />
    <mask id="mask1_138_2911" style="mask-type:alpha" maskUnits="userSpaceOnUse" x="6" y="203" width="28" height="44">
        <path
            d="M17.2633 239.431C18.045 235.007 18.8675 223.914 27.9504 225.085L33.8706 216.927L29.7776 205.053C29.7776 205.053 27.3464 205.223 23.5547 205.356C18.5929 203.969 12.6231 200.87 10.8253 205.481C7.94747 212.863 10.3334 217.822 7.06444 231.35C5.61829 237.334 7.69254 242.699 8.95219 244.575C10.2118 246.45 13.2722 247.346 14.5999 246.256C15.706 245.348 16.6071 243.145 17.2633 239.431Z"
            fill="#D9D9D9" />
    </mask>
    <g mask="url(#mask1_138_2911)">
        <path
            d="M15.6349 213.045C13.1649 206.876 12.7439 204.885 13.7505 201.962L20.7796 200.842L21.1954 209.869L26.5748 223.33L20.3673 231.771L15.9164 228.088L8.00631 223.493L8.15243 221.079C8.37592 220.893 10.2729 220.245 12.8376 221.734C16.4558 223.834 17.9263 228.12 19.1874 230.011C20.7682 226.168 17.9105 218.728 15.6349 213.045Z"
            fill="#ADADAD" />
    </g>
    <path
        d="M7.96648 221.337C12.1919 222.054 17.6415 225.728 19.5899 230.332L18.4528 233.403C17.183 229.238 11.8245 226.787 8.17299 225.973C6.89919 225.688 5.8427 224.587 5.87737 223.282C5.90839 222.116 6.81559 221.142 7.96648 221.337Z"
        fill="#412F16" />
    <path
        d="M32.2216 232.667C39.5319 231.458 76.8593 219.836 79.1765 219.207C90.8972 216.026 100.746 212.91 100.763 203.849C100.78 194.787 92.0777 193.173 84.2192 193.806C79.8862 193.98 66.9926 198.262 57.7568 200.542C48.5211 202.822 23.0939 199.208 21.7937 199.443C20.4936 199.678 21.1335 202.542 18.9184 201.993C16.7033 201.443 13.2364 201.678 14.1662 203.95C17.0201 211.73 20.0926 221.42 18.9657 228.183C16.5223 242.848 22.7726 231.059 26.4145 231.081C27.8707 231.089 24.9113 233.877 32.2216 232.667Z"
        fill="#00690B" />
    <mask id="mask2_138_2911" style="mask-type:alpha" maskUnits="userSpaceOnUse" x="14" y="193" width="87" height="43">
        <path
            d="M32.2177 232.667C39.528 231.458 76.8554 219.836 79.1725 219.207C90.8933 216.026 100.742 212.91 100.759 203.849C100.776 194.787 92.0738 193.173 84.2153 193.806C79.8822 193.98 66.9887 198.262 57.7529 200.542C48.5172 202.822 23.0899 199.208 21.7898 199.443C20.4897 199.678 21.1296 202.542 18.9145 201.993C16.6994 201.443 13.2325 201.678 14.1623 203.95C17.0162 211.73 20.0887 221.42 18.9618 228.183C16.5183 242.848 22.7687 231.059 26.4106 231.081C27.8668 231.089 24.9074 233.877 32.2177 232.667Z"
            fill="#00690B" />
    </mask>
    <g mask="url(#mask2_138_2911)">
        <path
            d="M71.2177 218.902C72.7119 217.968 76.3088 219.565 88.2911 217.387L86.1991 221.372L35.4396 236.157L26.4997 235.537L18.0393 238.119C18.7914 235.126 17.8022 216.937 18.3254 217.803C19.2513 219.336 23.0636 225.805 22.5751 229.171C22.1907 231.819 25.2393 228.627 27.4023 229.599C28.5869 230.132 30.1454 233.122 32.8005 230.039C35.4556 226.957 48.2173 228.073 54.1186 225.495C60.5684 222.677 65.3939 222.543 71.2177 218.902Z"
            fill="#004707" />
    </g>
    <path
        d="M117.938 167.014C126.304 141.283 129.943 135.549 131.299 124.224C130.559 110.69 111.279 112.843 103.834 119.832C97.44 124.84 93.0487 140.756 91.5272 148.282C90.0057 155.809 82.2003 186.118 80.7088 190.468C79.2828 196.228 73.3986 210.109 75.6014 211.216C78.355 212.6 89.0141 217.144 93.5833 214.193C97.1237 211.907 98.5826 210.55 100.236 207.834C102.749 203.706 114.319 178.142 117.938 167.014Z"
        fill="#00690B" />
    <mask id="mask3_138_2911" style="mask-type:alpha" maskUnits="userSpaceOnUse" x="75" y="114" width="57" height="102">
        <path
            d="M117.938 167.014C126.304 141.283 129.943 135.549 131.299 124.224C130.559 110.69 111.279 112.843 103.834 119.832C97.44 124.84 93.0487 140.756 91.5272 148.282C90.0057 155.809 82.2003 186.118 80.7088 190.468C79.2828 196.228 73.3986 210.109 75.6014 211.216C78.355 212.6 89.0141 217.144 93.5833 214.193C97.1237 211.907 98.5826 210.55 100.236 207.834C102.749 203.706 114.319 178.142 117.938 167.014Z"
            fill="#00690B" />
    </mask>
    <g mask="url(#mask3_138_2911)">
        <path
            d="M83.3824 193.13C82.7217 192.793 80.1344 193.157 78.9233 193.381L77.4245 194.029C77.508 194.066 77.5968 194.105 77.6903 194.147L78.9027 195.793L79.4899 194.974C80.7812 195.585 82.1109 196.256 82.5014 196.586C83.2814 197.246 84.7682 197.75 84.6583 197.525C84.5484 197.299 80.4551 194.12 80.5853 194.018C80.7156 193.916 83.1524 193.84 84.5094 194.687C85.8664 195.535 88.0695 196.476 87.6268 196.121C87.1841 195.766 84.2082 193.551 83.3824 193.13Z"
            fill="#004707" />
        <path
            d="M113.135 162.861C113.135 162.861 102.954 162.08 91.2981 149.943C90.3176 149.695 89.6591 148.82 89.0722 147.806C87.3709 145.943 85.8633 143.885 85.8633 143.885L86.1675 132.627L104.728 131.258L127.624 147.916L104.043 209.074L97.9462 212.014C99.3407 209.453 102.955 203.685 103.265 202.246C104.084 198.434 107.023 190.205 109.407 185.59L109.467 180.679C110.619 175.404 111.383 168.896 113.135 162.861Z"
            fill="#004707" />
    </g>
    <path
        d="M195.644 258.805C195.07 258.337 175.411 252.588 166.521 249.774C166.521 249.774 157.002 251.487 149.889 258.413C149.795 259.115 149.285 264.732 150.263 266.415C151.479 268.509 168.998 269.547 178.135 269.642C183.574 269.699 191.698 269.055 194.169 267.261C196.558 265.527 196.362 259.389 195.644 258.805Z"
        fill="#412F16" />
    <mask id="mask4_138_2911" style="mask-type:alpha" maskUnits="userSpaceOnUse" x="149" y="249" width="48" height="21">
        <path
            d="M195.64 258.805C195.066 258.337 175.407 252.588 166.517 249.774C166.517 249.774 156.998 251.487 149.885 258.413C149.791 259.115 149.281 264.732 150.259 266.415C151.475 268.509 168.994 269.547 178.131 269.642C183.57 269.699 191.694 269.055 194.165 267.261C196.554 265.527 196.358 259.389 195.64 258.805Z"
            fill="#412F16" />
    </mask>
    <g mask="url(#mask4_138_2911)">
        <path
            d="M190.941 255.131C196.74 257.685 194.048 265.555 188.249 266.383C185.282 266.807 179.858 266.889 166.811 264.68C150.933 264.68 145.723 261.66 148.693 258.03L175.552 246.867L191.3 244.972C192.317 248.353 189.025 254.287 190.941 255.131Z"
            fill="#785828" />
    </g>
    <path
        d="M186.703 254.693C182.259 254.029 171.148 253.502 172.077 244.391L163.765 238.69L152.004 243.097C152.004 243.097 152.239 245.523 152.472 249.309C151.217 254.306 148.279 260.356 152.936 262.031C160.391 264.712 165.285 262.195 178.895 265.103C184.916 266.39 190.224 264.174 192.065 262.865C193.907 261.556 194.721 258.473 193.596 257.174C192.659 256.093 190.432 255.251 186.703 254.693Z"
        fill="#D9D9D9" />
    <mask id="mask5_138_2911" style="mask-type:alpha" maskUnits="userSpaceOnUse" x="150" y="238" width="45" height="28">
        <path
            d="M186.703 254.693C182.259 254.029 171.148 253.502 172.077 244.391L163.765 238.69L152.004 243.097C152.004 243.097 152.239 245.523 152.472 249.31C151.217 254.306 148.279 260.356 152.936 262.031C160.391 264.712 165.285 262.195 178.895 265.103C184.916 266.39 190.224 264.174 192.065 262.865C193.907 261.556 194.721 258.473 193.596 257.174C192.659 256.093 190.432 255.251 186.703 254.693Z"
            fill="#D9D9D9" />
    </mask>
    <g mask="url(#mask5_138_2911)">
        <path
            d="M164.279 256.867C158.178 259.5 153.402 258.868 150.452 257.939L148.035 252.204L157.048 251.549L170.362 245.813L178.965 251.794L175.401 256.342L171.017 264.371L168.6 264.289C168.409 264.071 167.711 262.192 169.131 259.588C171.134 255.916 175.379 254.332 177.236 253.021C175.693 253.608 169.9 254.441 164.279 256.867Z"
            fill="#ADADAD" />
    </g>
    <path
        d="M168.86 264.472C169.464 260.229 172.992 254.683 177.543 252.613L180.643 253.668C176.513 255.049 174.205 260.47 173.488 264.142C173.238 265.423 172.165 266.508 170.86 266.508C169.692 266.508 168.695 265.627 168.86 264.472Z"
        fill="#412F16" />
    <path
        d="M181.457 240.025C181.654 232.618 177.307 193.766 177.128 191.371C176.223 179.26 175.028 169 166.133 167.268C157.238 165.536 154.006 173.775 153.141 181.612C152.491 185.899 154.256 199.371 154.746 208.871C155.236 218.371 147.53 245.475 147.515 246.796C147.499 248.117 150.639 248.513 149.68 250.584C148.721 252.655 148.142 254.952 149.297 256.107C153.316 259.999 173.701 251.69 175.926 252.621C188.6 257.117 179.47 249.427 180.18 245.855C180.464 244.427 181.261 247.432 181.457 240.025Z"
        fill="#00690B" />
    <mask id="mask6_138_2911" style="mask-type:alpha" maskUnits="userSpaceOnUse" x="147" y="167" width="36" height="91">
        <path
            d="M181.453 240.025C181.65 232.618 177.303 193.766 177.124 191.371C176.219 179.26 175.024 169 166.129 167.268C157.234 165.536 154.002 173.775 153.137 181.612C152.487 185.899 154.252 199.371 154.742 208.871C155.232 218.371 147.526 245.475 147.511 246.796C147.495 248.117 150.635 248.513 149.676 250.584C148.717 252.655 148.138 254.952 149.293 256.107C153.312 259.999 173.697 251.69 175.922 252.621C188.596 257.117 179.466 249.427 180.176 245.855C180.461 244.427 181.257 247.432 181.453 240.025Z"
            fill="#00690B" />
    </mask>
    <g mask="url(#mask6_138_2911)">
        <path
            d="M157.315 206.402C155.721 197.207 154.949 191.41 153.6 185.392L142.927 211.183L141.092 257.19L146.089 266.766C151.195 263.351 155.904 257.916 154.372 257.419C152.458 256.798 149.261 252.593 154.859 248.836C156.808 247.528 150.225 247.79 150.277 245.461C150.277 243.446 156.336 213.434 156.366 211.419C156.637 211.66 160.13 213.762 160.992 214.075C161.37 214.212 157.688 208.554 157.315 206.402Z"
            fill="#004707" />
    </g>
    <path
        d="M142.146 141.567C121.538 126.529 116.894 122.682 107.092 118.268C107.092 118.268 96.7908 114.584 91.8557 124.068C82.4272 142.187 101.604 154.126 113.813 160.93C120.132 164.452 144.531 181.731 147.99 184.346C152.743 187.289 163.95 195.192 165.642 193.412C167.757 191.187 174.463 182.794 174.969 177.521C175.168 175.452 172.814 171.204 170.772 169.006C168.31 166.356 151.059 148.07 142.146 141.567Z"
        fill="#00690B" />
    <mask id="mask7_138_2911" style="mask-type:alpha" maskUnits="userSpaceOnUse" x="89" y="117" width="86" height="77">
        <path
            d="M142.146 141.567C121.538 126.529 116.894 122.682 107.092 118.268C107.092 118.268 96.7908 114.584 91.8557 124.068C82.4272 142.187 101.604 154.126 113.813 160.93C120.132 164.452 144.531 181.731 147.99 184.346C152.743 187.289 163.95 195.192 165.642 193.412C167.757 191.187 174.463 182.794 174.969 177.521C175.168 175.452 172.814 171.204 170.772 169.006C168.31 166.356 151.059 148.07 142.146 141.567Z"
            fill="#00690B" />
    </mask>
    <g mask="url(#mask7_138_2911)">
        <path
            d="M155.99 181.739C155.267 181.96 153.511 184.665 152.724 185.989L151.987 188.033C152.074 187.999 152.168 187.963 152.267 187.925L154.252 188.641L154.179 187.223C155.562 186.738 157.014 186.284 157.525 186.296C158.547 186.321 160.012 185.545 159.783 185.396C159.554 185.248 154.374 185.43 154.409 185.202C154.444 184.975 156.268 182.719 157.853 182.433C159.438 182.148 161.733 181.21 161.166 181.217C160.599 181.224 156.894 181.462 155.99 181.739Z"
            fill="#004707" />
        <path
            d="M141.262 137.37L129.797 129.284L106.966 121.196L88.2977 126.243L85.7969 137.057L89.4038 137.237L110.811 135.283L112.163 133.255L127.722 131.681L139.782 138.638L141.262 137.37Z"
            fill="#004707" />
    </g>
    <path
        d="M122.39 66.5565C122.647 65.5289 123.981 56.4865 124.337 52.7199C124.904 47.4749 125.957 41.6364 119.814 40.3643C113.672 39.0923 109.852 45.394 109.753 52.1409C109.753 52.1409 109.444 56.4359 108.989 59.0179C108.319 62.8212 107.543 65.1695 107.543 65.1695C107.543 65.1695 104.482 65.551 103.481 66.2044C106.051 69.6697 112.716 76.4807 118.814 76.0031C124.911 75.5254 127.395 74.3309 128.761 71.6425C127.815 70.9629 122.081 67.7929 122.39 66.5565Z"
        fill="#FFB999" />
    <mask id="mask8_138_2911" style="mask-type:alpha" maskUnits="userSpaceOnUse" x="103" y="40" width="26" height="37">
        <path
            d="M122.39 66.5574C122.647 65.5298 123.981 56.4874 124.337 52.7209C124.904 47.4759 125.957 41.6374 119.814 40.3653C113.672 39.0932 109.852 45.3949 109.753 52.1419C109.753 52.1419 109.444 56.4369 108.989 59.0189C108.319 62.8222 107.543 65.1705 107.543 65.1705C107.543 65.1705 104.482 65.5519 103.481 66.2054C106.051 69.6707 112.716 76.4817 118.814 76.0041C124.911 75.5264 127.395 74.3319 128.761 71.6435C127.815 70.9639 122.081 67.7939 122.39 66.5574Z"
            fill="#FFB999" />
    </mask>
    <g mask="url(#mask8_138_2911)">
        <path
            d="M117.975 68.4463C121.312 68.5964 121.631 68.2351 121.631 68.2351L123.647 66.6874L125.627 72.4139L124.282 72.9908L105.91 68.251L107.009 63.4544C107.699 63.8768 108.332 64.2713 108.919 64.6384L109.157 64.7873C112.891 67.1212 114.781 68.3026 117.975 68.4463Z"
            fill="#F0846F" />
        <path
            d="M108.919 64.6384C108.332 64.2713 107.699 63.8768 107.009 63.4544L109.169 52.8084C109.873 53.2779 110.591 53.7359 111.319 54.184L108.919 64.6384Z"
            fill="#F0846F" />
        <path
            d="M126.081 41.7071C126.081 41.7071 127.052 52.7922 125.711 57.7101L126.638 59.043L123.94 61.0193C123.471 60.7781 122.999 60.5364 122.525 60.2937C118.784 58.3786 114.926 56.4038 111.319 54.184C110.591 53.7359 109.873 53.2779 109.169 52.8084C108.75 52.5294 108.336 52.2463 107.927 51.9589C107.927 51.9589 103.178 42.4965 106.656 38.5507C110.935 33.6954 124.349 37.4783 126.081 41.7071Z"
            fill="#F0846F" />
    </g>
    <path
        d="M129.836 36.4021C129.752 36.0051 130.992 31.7721 131.623 29.7053L129.663 25.4171L119.477 24.6808L106.949 36.8502C105.742 36.0658 103.553 35.226 101.876 35.9365C97.4047 37.8312 98.8267 42.8228 101.511 44.7215C103.89 46.4041 105.692 46.2624 107.198 45.8346C107.198 45.8346 107.432 50.8812 107.551 51.4409C107.623 51.7812 109.883 52.6641 109.883 52.6641C113.879 54.7992 122.737 58.6319 123.143 58.6953C123.549 58.7587 124.363 58.6374 125.173 58.4876C126.26 58.257 128.025 57.7864 128.255 57.6245C128.446 57.4904 131.914 45.2708 131.914 45.2708C131.914 45.2708 134.528 42.7371 134.505 42.6306C134.438 42.3148 129.942 36.8984 129.836 36.4021Z"
        fill="#FFB999" />
    <path
        d="M130.151 36.3269C130.094 36.0426 130.533 34.0708 130.682 33.1287C130.746 32.7445 130.57 32.7142 130.481 33.1526C130.339 33.8421 129.735 36.2091 129.845 36.6358C129.954 37.0625 133.805 42.6329 133.831 42.8332C133.867 43.1094 131.521 45.5141 131.702 45.6861C131.988 45.8333 135.48 42.9068 135.393 42.6322C135.285 42.289 130.221 36.6822 130.151 36.3269Z"
        fill="#F0846F" />
    <mask id="mask9_138_2911" style="mask-type:alpha" maskUnits="userSpaceOnUse" x="99" y="24" width="36" height="35">
        <path
            d="M129.84 36.4021C129.756 36.0051 130.996 31.7721 131.626 29.7053L129.667 25.4171L119.481 24.6808L106.953 36.8502C105.746 36.0658 103.557 35.226 101.88 35.9365C97.4086 37.8312 98.8306 42.8228 101.515 44.7215C103.894 46.4041 105.695 46.2624 107.202 45.8346C107.202 45.8346 107.436 50.8812 107.555 51.4409C107.627 51.7812 109.887 52.6641 109.887 52.6641C113.883 54.7992 122.741 58.6319 123.147 58.6953C123.553 58.7587 124.367 58.6374 125.177 58.4876C126.264 58.257 128.029 57.7864 128.259 57.6245C128.449 57.4904 131.917 45.2708 131.917 45.2708C131.917 45.2708 134.532 42.7371 134.509 42.6306C134.442 42.3148 129.946 36.8984 129.84 36.4021Z"
            fill="#FFB999" />
    </mask>
    <g mask="url(#mask9_138_2911)">
        <path
            d="M102.324 43.7616C104.827 45.7331 106.118 45.7845 107.192 45.8144L107.128 47.2869L103.273 47.0107C102.018 46.4571 99.3576 44.9015 98.7585 43.1072C98.1593 41.3128 97.53 37.933 99.9135 37.2558C99.4788 38.5729 100.089 42.0023 102.324 43.7616Z"
            fill="#F0846F" />
        <path
            d="M122.957 26.9045L124.498 29.5321L125.319 30.5304L120.714 35.4239L120.377 35.7835L127.527 31.8482L126.335 26.7376C126.335 26.7376 127.873 29.5343 129.609 30.5457C130.452 31.0362 131.775 31.3878 131.775 31.3878L131.487 28.2089L125.496 23.8452L117.68 25.3299L104.036 35.341L106.225 37.6956L106.813 40.471L107.301 37.7821C112.83 36.7916 117.265 32.1847 119.731 27.3861C119.731 27.3861 120.34 27.5633 121.369 27.4285C122.383 27.2956 122.957 26.9045 122.957 26.9045Z"
            fill="#F0846F" />
        <path
            d="M122.951 48.8876C122.98 49.2121 127.29 51.0067 131.015 50.2516C131.845 50.0566 131.523 49.3448 130.87 49.4665C130.053 49.6186 127.192 49.7792 125.787 49.5303C124.358 49.2771 122.907 48.6532 122.951 48.8876Z"
            fill="#F0846F" />
        <path
            d="M123.578 50.7288C123.638 50.9324 125.71 52.1187 127.708 51.9653C128.079 51.9095 128.031 51.6541 127.682 51.6291C127.17 51.5926 125.993 51.4187 125.274 51.1974C124.543 50.9723 123.516 50.4365 123.578 50.7288Z"
            fill="#F0846F" />
        <path
            d="M122.384 49.9102C122.311 48.4018 122.853 47.7683 123.309 47.3817C123.507 47.2442 123.52 46.7968 122.934 47.1579C122.202 47.6093 122.016 49.0087 122.131 49.714C122.205 50.1685 122.39 50.0771 122.384 49.9102Z"
            fill="#F0846F" />
        <path
            d="M121.81 37.4792C122.01 37.062 123.729 35.2114 125.775 34.5589C126.911 34.1964 127.22 34.44 127.678 34.9703C128.056 35.4901 128.07 36.0066 127.867 36.5665C127.664 37.1264 125.924 37.8372 124.571 37.8858C122.599 37.9566 121.855 37.6371 121.81 37.4792Z"
            fill="white" />
        <mask id="mask10_138_2911" style="mask-type:alpha" maskUnits="userSpaceOnUse" x="121" y="34" width="7"
            height="4">
            <path
                d="M121.806 37.4792C122.006 37.062 123.725 35.2114 125.771 34.5589C126.907 34.1964 127.216 34.44 127.675 34.9703C128.052 35.4901 128.066 36.0066 127.863 36.5665C127.66 37.1264 125.92 37.8372 124.567 37.8858C122.595 37.9566 121.851 37.6371 121.806 37.4792Z"
                fill="white" />
        </mask>
        <g mask="url(#mask10_138_2911)">
            <ellipse cx="1.55781" cy="1.47982" rx="1.55781" ry="1.47982"
                transform="matrix(-0.234297 -0.972165 -0.973975 0.226656 128.969 37.0137)" fill="#9F763C" />
            <ellipse cx="1.08107" cy="1.02695" rx="1.08107" ry="1.02695"
                transform="matrix(-0.234297 -0.972165 -0.973975 0.226656 128.926 36.6045)" fill="black" />
            <ellipse cx="0.536195" cy="0.289781" rx="0.536195" ry="0.289781"
                transform="matrix(-0.949423 -0.314001 0.467814 -0.883827 126.918 35.958)" fill="white" />
        </g>
        <path fill-rule="evenodd" clip-rule="evenodd"
            d="M124.521 35.1759C126.207 34.2826 127.229 34.7447 127.677 35.0169C127.875 35.1375 127.862 35.0038 127.602 34.7264C127.116 34.3454 126.433 34.1187 124.816 34.6414C122.798 35.294 121.905 36.9417 121.766 37.2071C121.649 37.4853 121.759 37.6349 121.867 37.4291C121.971 37.2313 123.098 35.9298 124.521 35.1759Z"
            fill="#4D4D4D" />
        <path
            d="M102.835 43.18C102.734 42.4463 103.137 41.8673 103.756 41.7264C104.841 41.5157 103.924 42.2413 103.618 42.5126C103.311 42.784 102.961 44.097 102.835 43.18Z"
            fill="#F0846F" />
        <path
            d="M102.929 40.2336C104.798 40.0813 105.758 41.8242 105.974 42.7516C105.423 42.0526 104.996 41.2396 103.74 41.0256C102.628 40.8364 101.874 42.0054 101.352 41.815C100.829 41.6245 100.95 40.3948 102.929 40.2336Z"
            fill="#F0846F" />
        <path
            d="M128.711 42.6851C129.282 42.4613 128.965 42.8069 128.633 43.1176C128.111 43.5696 127.93 43.9499 127.762 44.7536C127.7 44.9211 127.673 45.1464 127.613 45.0594C127.288 43.6615 128.077 42.9344 128.711 42.6851Z"
            fill="#F0846F" />
        <path
            d="M130.241 44.58C129.904 45.2918 129.075 45.376 129.283 45.4465C130.861 45.3781 131.272 44.4431 131.186 44.1063C131.085 43.7083 130.597 43.8252 130.241 44.58Z"
            fill="#F0846F" />
        <path
            d="M123.836 29.9391C123.296 30.2988 122.015 30.7028 121.195 31.0396L117.08 34.4601C119.546 33.7485 124.516 32.281 124.7 32.15C125.686 31.4471 126.083 27.8232 125.929 27.7619C125.701 27.6715 124.314 29.6206 123.836 29.9391Z"
            fill="#716B69" />
    </g>
    <path
        d="M117.496 2.95382C119.586 2.51044 123.155 11.0414 124.678 15.3623C125.558 13.7921 130.604 12.7026 131.249 12.9119C132.664 13.3707 134.205 25.2794 134.532 26.8224C134.794 28.0568 137.001 30.3715 138.072 31.3745C132.355 32.5382 128.39 29.5173 127.123 27.8614C127.299 29.3348 127.161 30.5238 126.93 30.9365C126.629 31.4755 124.501 33.073 120.342 35.7405C120.814 34.8691 124.354 30.9366 124.53 29.7555C124.612 29.2079 123.636 26.9815 123.175 26.1017C121.969 26.8433 120.138 26.8877 119.437 26.7723C119.055 27.5661 117.542 29.8812 114.542 32.7906C111.541 35.7001 108.883 36.9804 106.924 37.3451L106.837 40.6985C105.881 36.318 101.156 36.0356 99.5882 37.7858L97.8374 37.4228C94.2167 37.2036 92.1789 35.687 91.6125 34.9562C94.6784 35.7696 97.8329 34.9275 99.0269 34.4048C93.6003 33.8963 92.9792 26.7373 93.2215 26.6126C93.5257 26.4561 95.8937 27.4628 97.3947 25.3049C93.0406 24.3562 90.8355 21.2786 90.2772 19.8583C91.3335 20.2177 94.6696 20.5649 99.5631 19.079C105.68 17.2215 114.883 3.50805 117.496 2.95382Z"
        fill="#55504F" />
    <mask id="mask11_138_2911" style="mask-type:alpha" maskUnits="userSpaceOnUse" x="90" y="2" width="49" height="39">
        <path
            d="M117.5 2.95382C119.59 2.51044 123.159 11.0414 124.682 15.3623C125.562 13.7921 130.608 12.7026 131.253 12.9119C132.668 13.3707 134.208 25.2794 134.536 26.8224C134.798 28.0568 137.005 30.3715 138.076 31.3745C132.359 32.5382 128.394 29.5173 127.126 27.8614C127.303 29.3348 127.165 30.5238 126.934 30.9365C126.633 31.4755 124.505 33.073 120.346 35.7405C120.818 34.8691 124.358 30.9366 124.534 29.7555C124.616 29.2079 123.64 26.9815 123.179 26.1017C121.973 26.8433 120.142 26.8877 119.441 26.7723C119.059 27.5661 117.546 29.8812 114.546 32.7906C111.545 35.7001 108.887 36.9804 106.928 37.3451L106.841 40.6985C105.885 36.318 101.16 36.0356 99.5921 37.7858L97.8413 37.4228C94.2206 37.2036 92.1828 35.687 91.6164 34.9562C94.6824 35.7696 97.8368 34.9275 99.0308 34.4048C93.6042 33.8963 92.9831 26.7373 93.2254 26.6126C93.5296 26.4561 95.8976 27.4628 97.3986 25.3049C93.0445 24.3562 90.8394 21.2786 90.2811 19.8583C91.3374 20.2177 94.6735 20.5649 99.567 19.079C105.684 17.2215 114.887 3.50805 117.5 2.95382Z"
            fill="#55504F" />
    </mask>
    <g mask="url(#mask11_138_2911)">
        <path
            d="M133.573 15.616C132.753 12.5819 131.469 12.0944 130.929 12.2299L127.604 12.7195L124.934 14.9069C127.735 14.0313 130.288 13.4554 130.555 13.7616C130.838 14.0855 133.006 26.8533 133.447 27.7758C133.901 28.7256 137.659 31.5914 139.343 31.936C139.079 31.6342 138.121 30.6537 137.306 29.7908C136.288 28.7122 134.599 19.4085 133.573 15.616Z"
            fill="#252322" />
        <path
            d="M93.1896 22.1891C94.9786 23.2878 98.1767 24.3472 100.571 23.9979C97.646 25.7959 94.1024 25.9587 92.171 24.6472C90.6259 23.598 88.953 19.5473 88.6459 18.1706C89.0274 18.7237 91.1066 20.9098 93.1896 22.1891Z"
            fill="#252322" />
        <path
            d="M113.465 34.5907C118.899 30.4495 120.27 24.7951 120.262 22.6514C120.263 21.997 120.04 21.8119 119.538 23.0259C118.148 26.3892 115.348 29.896 111.496 32.3645C108.022 34.5913 103.363 35.0566 103.219 34.6541C105.343 34.0883 109.385 29.7531 109.31 29.4404C109.267 29.2566 107.699 30.396 105.669 31.6169C100.202 34.4935 96.4941 35.5762 91.3855 34.8354C92.2721 35.8086 92.7746 37.0346 93.2409 37.0699C94.0007 37.1273 95.6038 38.0665 97.7535 38.2232C100.179 38.4001 103.248 38.1482 106.194 37.5302C108.879 36.9668 111.458 36.121 113.465 34.5907Z"
            fill="#252322" />
        <path
            d="M122.585 23.601C122.862 23.2425 126.976 23.7565 127.044 23.9393C127.154 24.1728 124.477 24.018 123.997 24.0362C124.013 24.2452 125.554 28.6536 125.658 29.2122C125.731 29.5992 124.732 31.3715 123.686 32.7043L126.083 30.5966C126.428 28.9429 126.693 26.3355 126.884 26.4234C127.123 26.5334 127.444 30.6549 127.095 31.341C126.816 31.8898 121.019 35.6071 119.429 36.6785C120.287 35.6362 123.884 30.9717 124.231 29.7227C124.381 29.1827 122.24 24.0492 122.585 23.601Z"
            fill="#252322" />
        <path
            d="M124.637 12.3193C125.109 15.5504 124.17 17.0266 123.641 17.3608C123.622 13.6101 119.386 4.79059 117.711 4.42159C116.585 4.17359 114.738 6.40062 113.609 7.59631C110.178 11.2278 103.61 17.5174 101.616 17.9218C101.48 17.7509 106.222 13.3868 107.709 11.9788C109.568 10.2189 115.659 3.1307 117.272 2.25556C118.886 1.38042 124.047 8.28054 124.637 12.3193Z"
            fill="#252322" />
        <path
            d="M104.535 27.8574C108.982 26.6701 111.39 22.8946 112.038 21.1553C112.253 20.6466 112.059 20.5928 111.718 21.1169C110.36 23.1755 108.822 24.259 107.885 24.6869C109.509 22.3389 109.248 19.7226 109.037 18.7263C108.868 17.9293 108.67 17.9328 108.592 18.0341C109.066 22.5714 106.085 26.4735 104.535 27.8574Z"
            fill="#252322" />
        <path
            d="M93.4248 30.7296C95.3744 33.7795 98.7776 34.6844 100.236 34.7556C100.668 34.7953 100.662 34.6373 100.188 34.5069C98.3218 33.9797 97.1433 33.0853 96.5992 32.4849C98.7457 33.1421 100.644 32.3236 101.341 31.9278C101.898 31.6112 101.848 31.4633 101.753 31.429C98.466 32.8655 94.8313 31.5613 93.4248 30.7296Z"
            fill="#252322" />
    </g>
    <path
        d="M57.3147 151.184L58.1142 146.286C58.1142 146.286 56.7243 138.165 62.1346 137.444C67.9741 136.666 67.1774 141.948 67.3306 144.095C67.4839 146.243 68.5226 150.701 68.7859 151.116C69.1151 151.635 73.2431 156.849 73.2875 157.472C73.3231 157.97 71.5419 160.501 70.6468 161.704C70.7678 164.052 70.4723 165.968 70.2059 166.914C67.9851 167.607 66.4672 166.764 65.9858 166.256C63.5943 166.426 62.2135 164.856 61.822 164.049C60.0284 164.177 58.8584 162.675 58.4976 161.908C56.5403 161.964 54.9509 158.989 54.7996 158.04C54.6787 157.281 56.4259 153.153 57.3147 151.184Z"
        fill="#FFB999" />
    <mask id="mask12_138_2911" style="mask-type:alpha" maskUnits="userSpaceOnUse" x="54" y="137" width="20" height="31">
        <path
            d="M57.3147 151.184L58.1142 146.286C58.1142 146.286 56.7243 138.165 62.1346 137.444C67.9741 136.666 67.1774 141.948 67.3306 144.095C67.4839 146.243 68.5226 150.701 68.7859 151.116C69.1151 151.635 73.2431 156.849 73.2875 157.472C73.3231 157.97 71.5419 160.501 70.6468 161.704C70.7678 164.052 70.4723 165.968 70.2059 166.914C67.9851 167.607 66.4672 166.764 65.9858 166.256C63.5943 166.426 62.2135 164.856 61.822 164.049C60.0284 164.177 58.8584 162.675 58.4976 161.908C56.5403 161.964 54.9509 158.989 54.7996 158.04C54.6787 157.281 56.4259 153.153 57.3147 151.184Z"
            fill="#FFB999" />
    </mask>
    <g mask="url(#mask12_138_2911)">
        <path
            d="M57.6923 139.663C57.2296 140.711 57.4268 145.008 57.5833 147.025L56.9421 149.764L55.217 155.015L53.7384 157.905L56.6796 162.505L59.4144 164.214L64.0962 166.859L69.9927 168.05C70.7004 166.887 72.0527 164.227 71.8006 162.885C71.4854 161.209 69.746 156.22 69.5547 156.279C69.3634 156.338 70.3124 159.038 70.6831 161.703C70.9797 163.835 70.6084 165.843 70.421 166.518C69.9476 166.557 68.2016 166.727 67.3153 166.336C66.244 165.863 65.638 163.761 65.3986 163.778C65.2072 163.792 65.4948 165.125 65.6625 165.79C65.2208 165.641 64.2133 165.315 63.7775 165.082C62.1393 164.206 61.6832 162.074 61.5187 162.086C61.387 162.095 61.5785 163.134 61.6906 163.652C61.3252 163.518 60.4435 163.06 59.7651 162.376C58.4013 161.001 58.6364 159.697 58.5043 159.669C58.1872 159.603 58.3843 161.106 58.5263 161.81C58.4142 161.669 57.9913 161.447 57.4497 160.921C56.8227 160.311 55.715 158.735 55.6681 158.079C55.6212 157.423 57.8201 152.577 57.9892 152.305C58.1245 152.088 58.9315 149.906 59.3181 148.842L68.2982 147.566L68.0516 146.203L67.6088 139.478C66.8315 138.525 64.8239 136.653 63.0114 136.782C60.7459 136.944 58.2707 138.352 57.6923 139.663Z"
            fill="#F0846F" />
    </g>
    <path
        d="M189.467 112.318C189.467 112.318 184.908 113.882 180.282 114.805C176.993 115.462 170.96 116.882 169.275 110.653C167.417 103.781 182.481 104.49 187.208 103.732L188.05 100.718C188.328 100.485 191.632 99.4961 193.998 97.2902C196.376 95.0734 197.974 90.3002 198.337 90.2256C198.614 90.1687 199.845 91.9806 200.02 92.989C200.112 93.7774 199.078 96.6356 198.647 97.0987C200.926 95.0249 204.076 94.7204 205.108 95.0658C205.664 95.3056 206.837 96.7996 205.862 99.1073C207.63 99.3195 207.788 101.525 205.727 103.615C206.856 104.085 206.874 106.679 204.933 108.159C205.361 110.242 204.86 111.531 201.477 112.641C196.975 114.078 191.563 112.948 189.467 112.318Z"
        fill="#FFB999" />
    <mask id="mask13_138_2911" style="mask-type:alpha" maskUnits="userSpaceOnUse" x="169" y="90" width="39" height="26">
        <path
            d="M189.467 112.319C189.467 112.319 184.908 113.883 180.282 114.806C176.993 115.463 170.96 116.883 169.275 110.654C167.417 103.782 182.481 104.491 187.208 103.733L188.05 100.719C188.328 100.486 191.632 99.497 193.998 97.2912C196.376 95.0743 197.974 90.3012 198.337 90.2266C198.614 90.1697 199.845 91.9816 200.02 92.99C200.112 93.7784 199.078 96.6365 198.647 97.0997C200.926 95.0259 204.076 94.7214 205.108 95.0668C205.664 95.3066 206.837 96.8006 205.862 99.1083C207.63 99.3205 207.788 101.526 205.727 103.616C206.856 104.086 206.874 106.68 204.933 108.16C205.361 110.243 204.86 111.532 201.477 112.642C196.975 114.079 191.563 112.949 189.467 112.319Z"
            fill="#FFB999" />
    </mask>
    <g mask="url(#mask13_138_2911)">
        <path
            d="M195.588 99.9048C196.534 99.4182 198.035 97.8637 198.668 97.1472C198.766 96.9422 199.006 96.5892 199.174 96.8176C199.385 97.1031 197.005 99.7633 196.597 100.108C196.19 100.452 194.405 100.513 195.588 99.9048Z"
            fill="#F0846F" />
        <path
            d="M189.049 111.446L185.978 112.234C185.978 112.234 186.13 111.034 186.176 107.493C186.208 105.068 185.748 102.775 185.748 102.775C184.757 102.68 179.691 103.656 176.917 104.117C173.45 104.693 168.571 106.523 168.47 108.545C168.369 110.566 168.984 113.51 170.904 114.818C172.441 115.864 176.156 116.004 177.821 115.943L188.864 113.21L197.476 114.713L202.596 112.634C202.037 112.74 200.296 112.922 197.804 112.807C195.312 112.692 190.929 111.851 189.049 111.446Z"
            fill="#F0846F" />
        <path
            d="M196.743 106.125C196.721 104.629 196.454 102.719 196.36 102.004C196.28 101.337 195.884 101.614 195.84 101.843C195.731 102.403 196.047 104.794 196.114 106.022C196.208 107.732 195.701 109.955 195.857 109.802C196.013 109.65 196.772 107.996 196.743 106.125Z"
            fill="#F0846F" />
        <path
            d="M199.472 102.036C199.169 101.983 198.602 101.087 198.603 100.568C198.603 100.372 198.848 99.9674 199.29 99.6323C199.784 99.2583 200.5 98.947 200.881 98.6259C200.667 98.6072 199.793 98.8646 199.12 99.2887C198.504 99.6773 198.076 100.231 198.065 100.304C198.042 100.456 198.711 102.392 199.19 102.485C199.891 102.622 201.088 101.901 201.762 101.562C202.436 101.222 205.806 99.1872 205.669 99.0627C205.532 98.9382 200.053 102.138 199.472 102.036Z"
            fill="#F0846F" />
        <path
            d="M199.927 108.559C199.642 108.443 199.281 106.537 199.382 106.331C199.454 106.184 199.766 106.048 200.263 105.879C200.967 105.654 201.591 105.466 202.032 105.234C201.827 105.17 200.918 105.235 200.17 105.507C199.485 105.755 198.949 106.205 198.923 106.274C198.868 106.418 199.108 108.745 199.555 108.938C200.212 109.221 201.55 108.964 202.297 108.853C203.267 108.71 204.878 108.162 204.771 108.012C204.664 107.861 200.473 108.783 199.927 108.559Z"
            fill="#F0846F" />
        <path
            d="M200.078 105.223C199.785 105.13 199.276 103.71 199.352 103.197C199.367 103.094 200.003 102.704 200.388 102.389C200.973 101.91 201.503 101.592 201.923 101.325C201.714 101.278 200.726 101.626 200.003 101.957C199.34 102.261 198.964 103.083 198.943 103.153C198.9 103.301 199.276 105.475 199.739 105.63C200.416 105.859 201.915 105.474 202.619 105.202C203.835 104.731 205.742 103.711 205.623 103.57C205.554 103.488 203.975 104.283 202.479 104.791C201.395 105.159 200.314 105.298 200.078 105.223Z"
            fill="#F0846F" />
        <path
            d="M198.784 111.882C198.549 111.746 198.429 110.443 198.539 109.999C198.594 109.772 199.129 109.648 199.584 109.497C200.216 109.286 200.943 109.083 201.356 108.931C201.184 108.851 200.708 108.728 199.581 109.116C198.996 109.317 198.285 109.594 198.194 109.884C198.154 110.014 198.046 111.948 198.415 112.169C198.956 112.493 200.32 112.443 200.978 112.341C202.115 112.163 203.951 111.643 203.874 111.498C203.83 111.415 202.32 111.803 200.935 111.96C199.931 112.074 198.974 111.99 198.784 111.882Z"
            fill="#F0846F" />
    </g>
    <path
        d="M165.754 116.509C155.864 115.807 147.818 117.966 143.012 119.271C134.531 120.79 131.724 115.34 131.561 110.562C131.455 107.485 133.294 102.385 139.02 101.515C144.746 100.645 157.188 100.921 162.13 101.018C167.071 101.114 181.789 99.2532 182.351 99.6444C182.914 100.036 184.545 102.963 184.941 109.014C185.337 115.064 184.612 120.731 183.828 121.697C183.043 122.663 178.115 117.387 165.754 116.509Z"
        fill="#2ABB3B" />
    <mask id="mask14_138_2911" style="mask-type:alpha" maskUnits="userSpaceOnUse" x="131" y="99" width="55" height="23">
        <path
            d="M165.754 116.509C155.864 115.807 147.818 117.966 143.012 119.271C134.531 120.79 131.724 115.34 131.561 110.562C131.455 107.485 133.294 102.385 139.02 101.515C144.746 100.645 157.188 100.921 162.13 101.018C167.071 101.114 181.789 99.2532 182.351 99.6444C182.914 100.036 184.545 102.963 184.941 109.014C185.337 115.064 184.612 120.731 183.828 121.697C183.043 122.663 178.115 117.387 165.754 116.509Z"
            fill="#2ABB3B" />
    </mask>
    <g mask="url(#mask14_138_2911)">
        <path
            d="M156.045 97.0291C152.59 97.3966 145.183 100.68 142.156 103.937C143.442 103.409 144.892 103.059 146.368 102.699C148.998 102.056 151.659 101.597 153.256 101.597C155.749 101.597 155.585 102.358 155.585 103.369C155.585 104.38 163.76 101.257 167.067 101.257C169.714 101.257 179.441 97.0915 183.974 95.0088C176.746 95.2844 159.499 96.6616 156.045 97.0291Z"
            fill="#25A735" />
        <path
            d="M153.726 115.374C149.942 115.665 141.036 121.491 137.641 123.027L143.231 126.969L166.513 121.876L185.308 128.303C185.793 126.929 186.563 122.867 186.763 117.632C187.193 106.359 182.223 96.4345 182.588 98.8352C183.201 102.874 185.441 111.872 183.82 117.19C183.339 118.768 178.088 116.263 171.951 114.726C167.949 114.362 157.509 115.083 153.726 115.374Z"
            fill="#25A735" />
    </g>
    <path
        d="M124.166 69.7354C120.303 70.8194 119.181 74.3197 119.953 80.0892C120.269 82.4534 123.18 90.6103 125.639 96.648C127.982 102.398 131.514 113.743 133.685 116.445C138.106 122.418 148.239 119.07 146.535 103.744C145.889 97.9395 137.865 76.7372 136.343 73.3239C134.355 68.5173 128.832 68.4262 124.166 69.7354Z"
        fill="#2ABB3B" />
    <mask id="mask15_138_2911" style="mask-type:alpha" maskUnits="userSpaceOnUse" x="119" y="69" width="28" height="51">
        <path
            d="M124.166 69.7354C120.303 70.8194 119.181 74.3197 119.953 80.0892C120.269 82.4534 123.18 90.6103 125.639 96.648C127.982 102.398 131.514 113.743 133.685 116.445C138.106 122.418 148.239 119.07 146.535 103.744C145.889 97.9395 137.865 76.7372 136.343 73.3239C134.355 68.5173 128.832 68.4262 124.166 69.7354Z"
            fill="#2ABB3B" />
    </mask>
    <g mask="url(#mask15_138_2911)">
        <path
            d="M141.89 102.405C142.249 101.904 144.792 101.253 146.019 100.99L147.787 100.953C146.943 101.962 145.204 104.139 145.007 104.775C144.76 105.569 143.78 106.498 143.725 106.283C143.67 106.068 145.158 102.118 144.973 102.086C144.788 102.053 142.574 102.874 141.941 104.023C141.308 105.171 139.988 106.698 140.141 106.263C140.294 105.827 141.441 103.031 141.89 102.405Z"
            fill="#25A735" />
        <path
            d="M133.16 66.0234L121.715 66.1069L123.013 117.696L142.62 124.224C141.495 123.704 138.644 121.982 137.254 118.771C133.779 110.742 135.225 98.8075 135.052 87.4684C134.913 78.3971 133.572 68.9748 133.774 67.1859L133.16 66.0234Z"
            fill="#25A735" />
    </g>
    <path
        d="M107.545 65.1494C114.011 70.5248 122.519 69.2332 124.561 68.371C124.561 68.371 131.858 86.5827 132.54 98.8784C133.237 111.433 127.754 130.718 127.754 130.718L109.926 130.611L101.697 70.2837L107.545 65.1494Z"
        fill="#F6F6F6" />
    <path
        d="M119.671 80.5888C123.17 78.2956 124.936 73.3538 125.423 70.2692C124.814 67.6135 123.807 68.002 123.38 68.5282C123.611 69.7903 124.258 70.3887 123.209 73.476C121.899 77.3352 119.27 83.0492 115.52 79.2993C109.296 73.0042 107.511 69.1908 106.407 66.0234L105.133 66.788C108.895 73.3655 115.338 83.4285 119.671 80.5888Z"
        fill="#F0B800" />
    <path
        d="M119.668 79.426C119.301 79.1165 118.419 78.6369 117.828 79.1946C117.237 79.7523 117.73 80.754 118.051 81.1851C117.814 81.5076 117.385 82.2643 118.284 82.8522C118.958 83.2934 119.877 82.89 120.07 82.4554C120.485 82.8518 121.72 83.6402 122.358 82.7365C122.852 82.0367 122.03 81.0937 121.344 80.7262C121.672 80.4425 122.046 79.2616 121.385 78.8103C120.72 78.356 119.87 78.8732 119.668 79.426Z"
        fill="#FFD858" />
    <path fill-rule="evenodd" clip-rule="evenodd"
        d="M119.579 79.0144C119.117 78.6242 118.004 78.0195 117.259 78.7226C116.514 79.4258 117.136 80.6888 117.54 81.2324C117.242 81.639 116.916 82.6548 118.001 83.465C119.085 84.2751 119.843 83.382 120.087 82.8341C120.61 83.3338 121.919 84.1042 122.971 83.1884C124.023 82.2726 122.558 81.1171 121.693 80.6538C122.106 80.296 122.577 78.8071 121.744 78.2381C120.905 77.6653 119.834 78.3174 119.579 79.0144ZM117.828 79.1946C118.419 78.6369 119.301 79.1165 119.668 79.426C119.87 78.8732 120.72 78.356 121.385 78.8103C122.046 79.2616 121.672 80.4425 121.344 80.7262C122.03 81.0937 122.852 82.0367 122.358 82.7365C121.72 83.6402 120.485 82.8518 120.07 82.4554C119.877 82.89 118.958 83.2934 118.284 82.8522C117.385 82.2643 117.814 81.5076 118.051 81.1851C117.73 80.754 117.237 79.7523 117.828 79.1946Z"
        fill="#F0B800" />
    <path
        d="M138.715 139.303C138.781 138.021 138.543 134.362 137.063 129.986C131.706 114.154 135.584 89.536 132.869 69.8119C132.21 68.9671 122.922 66.4487 122.361 66.5996C125.793 85.8834 126.926 90.8969 125.943 111.657C125.22 126.929 122.579 126.368 125.792 131.477C128.511 133.701 132.943 135.35 138.715 139.303Z"
        fill="#2ABB3B" />
    <mask id="mask16_138_2911" style="mask-type:alpha" maskUnits="userSpaceOnUse" x="122" y="66" width="17" height="74">
        <path
            d="M138.715 139.303C138.781 138.021 138.543 134.362 137.063 129.986C131.706 114.154 135.584 89.536 132.869 69.8119C132.21 68.9671 122.922 66.4487 122.361 66.5996C125.793 85.8834 126.926 90.8969 125.943 111.657C125.22 126.929 122.579 126.368 125.792 131.477C128.511 133.701 132.943 135.35 138.715 139.303Z"
            fill="#2ABB3B" />
    </mask>
    <g mask="url(#mask16_138_2911)">
        <ellipse cx="128.776" cy="98.1533" rx="2.16815" ry="3.06738" transform="rotate(0.546438 128.776 98.1533)"
            fill="#F0B800" />
        <ellipse cx="128.775" cy="98.2983" rx="1.26724" ry="2.48751" transform="rotate(0.546438 128.775 98.2983)"
            fill="#FFD858" />
        <ellipse cx="128.719" cy="107.119" rx="2.16815" ry="3.06738" transform="rotate(1.36429 128.719 107.119)"
            fill="#F0B800" />
        <ellipse cx="128.719" cy="107.264" rx="1.26724" ry="2.48751" transform="rotate(1.36429 128.719 107.264)"
            fill="#FFD858" />
        <path
            d="M126.991 113.647C127.907 92.3445 130.373 82.9328 126.365 67.2423L120.854 66.1131C119.74 77.3963 119.027 93.5415 121.587 111.968C122.901 121.434 122.73 129.367 124.128 136.438L129.167 137.24C126.888 132.065 126.154 133.107 126.991 113.647Z"
            fill="#2FD745" />
    </g>
    <path
        d="M84.5092 70.1208C85.1039 67.9648 104.204 64.8662 107.611 64.9971C118.393 71.2203 120.195 107.312 110.658 132.456C100.785 134.582 84.1629 136.036 74.219 133.55C82.3885 124.081 94.0295 101.562 92.4841 89.0221C91.088 77.6924 83.8401 71.682 84.5092 70.1208Z"
        fill="#2ABB3B" />
    <mask id="mask17_138_2911" style="mask-type:alpha" maskUnits="userSpaceOnUse" x="74" y="64" width="43" height="71">
        <path
            d="M84.5092 70.1208C85.1039 67.9648 104.204 64.8662 107.611 64.9971C118.393 71.2203 120.195 107.312 110.658 132.456C100.785 134.582 84.1629 136.036 74.219 133.55C82.3885 124.081 94.0295 101.562 92.4841 89.0221C91.088 77.6924 83.8401 71.682 84.5092 70.1208Z"
            fill="#2ABB3B" />
    </mask>
    <g mask="url(#mask17_138_2911)">
        <path
            d="M87.7303 105.879L73.6992 133.423L84.2015 141.281L113.57 133.199C110.914 133.351 104.6 133.677 100.593 133.768C95.5848 133.882 76.0486 132.468 78.2938 132.468L89.6243 117.354L86.7534 117.91C86.7534 117.91 94.4465 96.2035 94.4465 91.6502C94.4465 87.0969 92.8961 80.6329 92.5546 86.2107C92.2814 90.6729 89.6655 100.263 87.7303 105.879Z"
            fill="#25A735" />
        <path
            d="M99.0139 64.4149L110.464 61.5423C113.226 71.9635 116.878 86.6014 114.946 108.939C113.732 122.977 116.833 139.941 114.611 143.021L108.257 139.705C111.154 134.468 114.356 118.132 111.636 95.8244C108.752 72.1796 102.313 68.9116 99.0139 64.4149Z"
            fill="#25A735" />
        <ellipse cx="109.289" cy="98.6855" rx="2.16815" ry="3.06738" transform="rotate(3.50903 109.289 98.6855)"
            fill="#F0B800" />
        <ellipse cx="109.277" cy="98.829" rx="1.26724" ry="2.48751" transform="rotate(3.50903 109.277 98.829)"
            fill="#FFD858" />
        <ellipse cx="108.766" cy="107.636" rx="2.16815" ry="3.06738" transform="rotate(4.32688 108.766 107.636)"
            fill="#F0B800" />
        <ellipse cx="108.76" cy="107.781" rx="1.26724" ry="2.48751" transform="rotate(4.32688 108.76 107.781)"
            fill="#FFD858" />
        <path
            d="M113.173 102.771C114.533 81.6904 107.908 72.0864 101.923 64.8155L115.499 63.2344C116.613 74.5176 119.567 91.0107 117.008 109.437C115.693 118.904 112.103 127.768 110.705 134.839L106.243 134.858C108.522 129.684 111.919 122.209 113.173 102.771Z"
            fill="#2FD745" />
    </g>
    <path
        d="M55.3343 128.115C54.9427 118.209 51.9095 110.449 50.083 105.817C47.6381 97.5549 52.7458 94.1643 57.477 93.4751C60.5234 93.0314 65.7954 94.297 67.2909 99.8922C68.7865 105.487 69.8832 117.884 70.3321 122.806C70.7809 127.728 74.2525 142.151 73.9257 142.753C73.5988 143.355 70.869 145.299 64.8988 146.359C58.9286 147.42 53.2167 147.324 52.17 146.651C51.1232 145.978 55.8238 140.498 55.3343 128.115Z"
        fill="#2ABB3B" />
    <mask id="mask18_138_2911" style="mask-type:alpha" maskUnits="userSpaceOnUse" x="49" y="93" width="25" height="55">
        <path
            d="M55.3343 128.115C54.9427 118.209 51.9095 110.449 50.083 105.817C47.6381 97.5549 52.7458 94.1643 57.477 93.4751C60.5234 93.0314 65.7954 94.297 67.2909 99.8922C68.7865 105.487 69.8832 117.884 70.3321 122.806C70.7809 127.728 74.2525 142.151 73.9257 142.753C73.5988 143.355 70.869 145.299 64.8988 146.359C58.9286 147.42 53.2167 147.324 52.17 146.651C51.1232 145.978 55.8238 140.498 55.3343 128.115Z"
            fill="#2ABB3B" />
    </mask>
    <g mask="url(#mask18_138_2911)">
        <path
            d="M55.19 116.004C54.9358 114.886 51.1434 107.276 49.2789 103.61L47.3086 105.454L52.5205 117.021L53.0925 137.742L48.262 147.403L66.1223 148.611L71.2707 144.67C64.2791 145.242 54.7451 146.259 53.9824 145.878C53.2197 145.496 56.9061 136.28 56.9061 134.882C56.9061 133.483 56.6519 126.682 56.6519 125.475C56.6519 124.267 55.5078 117.403 55.19 116.004Z"
            fill="#25A735" />
    </g>
    <path
        d="M59.4902 140.787C61.3245 140.981 64.8411 140.066 66.3701 139.585C68.5841 138.977 69.2948 138.221 68.0435 137.883C66.0133 137.335 60.754 138.095 59.4019 138.625C58.0499 139.156 57.1972 140.544 59.4902 140.787Z"
        fill="#FFD858" />
    <path
        d="M60.2089 135.849C62.0433 136.043 65.5599 135.129 67.0889 134.647C69.3029 134.04 70.0135 133.283 68.7622 132.946C66.7321 132.398 61.4727 133.158 60.1207 133.688C58.7686 134.218 57.916 135.606 60.2089 135.849Z"
        fill="#FFD858" />
    <path
        d="M97.0885 73.861C95.7654 70.0729 90.58 67.135 85.2093 69.3797C83.0085 70.2995 73.1378 80.0706 67.9467 84.0147C63.0033 87.7707 52.9657 94.1296 50.9209 96.9284C46.3018 102.75 52.1681 111.664 66.5243 106.036C71.9618 103.905 89.4446 91.3247 92.3452 88.9679C96.4699 85.7985 99.3409 80.3095 97.0885 73.861Z"
        fill="#2ABB3B" />
    <mask id="mask19_138_2911" style="mask-type:alpha" maskUnits="userSpaceOnUse" x="49" y="68" width="49" height="40">
        <path
            d="M97.0885 73.861C95.7654 70.0729 90.58 67.135 85.2093 69.3797C83.0085 70.2995 73.1378 80.0706 67.9467 84.0147C63.0033 87.7707 52.9657 94.1296 50.9209 96.9284C46.3018 102.75 52.1681 111.664 66.5243 106.036C71.9618 103.905 89.4446 91.3247 92.3452 88.9679C96.4699 85.7985 99.3409 80.3095 97.0885 73.861Z"
            fill="#2ABB3B" />
    </mask>
    <g mask="url(#mask19_138_2911)">
        <path
            d="M66.0642 100.312C66.7017 100.498 68.2739 102.852 68.9803 104.005L69.6508 105.791C68.3224 105.293 65.4864 104.303 64.7691 104.33C63.8724 104.363 62.5773 103.699 62.7765 103.566C62.9758 103.433 67.5254 103.533 67.4922 103.334C67.459 103.134 65.8317 101.175 64.4369 100.942C63.0422 100.71 61.0165 99.9131 61.5146 99.9131C62.0127 99.9131 65.2672 100.079 66.0642 100.312Z"
            fill="#25A735" />
        <path
            d="M76.6082 96.2237C76.6082 96.2237 70.7014 102.289 68.3281 105.084L70.2848 108.546L77.0233 106.147L94.1509 90.7268V85.0776C94.1509 84.4294 88.9982 90.2424 87.3313 91.3537C85.6643 92.465 76.6082 96.2237 76.6082 96.2237Z"
            fill="#25A735" />
    </g>
</svg>